<?xml version="1.0" encoding="utf-8"?>
<!-- Generator: Adobe Illustrator 18.1.1, SVG Export Plug-In . SVG Version: 6.00 Build 0)  -->
<svg version="1.1" id="Layer_1" xmlns="http://www.w3.org/2000/svg" xmlns:xlink="http://www.w3.org/1999/xlink" x="0px" y="0px"
	 viewBox="0 0 612 792" enable-background="new 0 0 612 792" xml:space="preserve">
<path fill="#FFFFFF" d="M515.7,186.3c-56-56-130.5-86.9-209.7-86.9s-153.7,30.8-209.7,86.9S9.4,316.8,9.4,396s30.8,153.7,86.9,209.7
	s130.5,86.9,209.7,86.9s153.7-30.8,209.7-86.9s86.9-130.5,86.9-209.7S571.7,242.3,515.7,186.3z M93.9,524.3
	c-0.1-1.2,0.9-3.5-0.6-7.8c-1.5-4.2-2.4-7.6-3.9-9.7c-1.4-2-3.2-2.6-4.1-3.2s0.5-2.2,1.3-5.6c0.8-3.4,2.5-6.2,2.9-13.1
	c0.6-6.8,2.1-16.8,4.1-21.8c2-4.9,1.9-5.2,1.9-8.9c0-3.9,0.1-4.2,2-6.9c1.9-2.7,2-2.5,2.5-4.4c0.5-2,2-2.7,2-4.8
	c0-2.1-0.5-5.2,0-2.1c0.5,2.9,2,10.9,4.2,19.8c2.2,8.8,1.8,8.2,4.2,13.7c2.6,5.4,1.6,3.5,3.1,14.2c1.4,10.7-2,0.5-6.2,15.2
	c-4.2,14.7-6.8,15.1-8,21.3c-1.2,6.2-3.6,6.6-3.9,10.5c-0.1,4-0.1,4.2-0.1,8c0,3.6-0.1,4.8,1.8,6.7c0.5,0.5,0.7,1.1,0.7,1.9
	c-0.2,0.2-0.4,0.6-0.6,0.8c-1.5,2.2-1.9,0.9-3.2,4c-1.3,2.9-1.3,3.4-1.3,4.7s0.6-0.7,0.9,1.9c0.5,2.6,0.8,3.8,0.7,5.5
	c0,0.2-0.1,0.5-0.1,0.7c-5.4-6.8-10.6-13.9-15.3-21.2c0-10.2,0.1-19.8,0.4-20.9c0,0,0.8-0.7,2.7,0.6c1.9,1.3,1.6,0.2,4.4,2
	c2.7,1.8,4,1.5,5.4,1.5C93.3,526.6,94,525.5,93.9,524.3z M109.2,346.5c-0.2,0.8-0.5,1.5-0.7,2.2c-0.4,0.1-0.8,0.2-1.1,0.4
	c0.5-1.2,1.1-2.5,1.8-3.9C109.2,345.6,109.2,346.1,109.2,346.5z M109.5,347.5c0,0.2,0.1,0.4,0.2,0.5c0,0.1,0,0.1,0,0.2
	c-0.1,0.1-0.4,0.1-0.5,0.2C109.2,348.1,109.3,347.9,109.5,347.5z M110,344.5c0,0.1-0.1,0.2-0.1,0.2c0-0.4,0.1-0.7,0.1-1.1l0,0
	C110,344,110,344.2,110,344.5z M110,346.3c0,0.1,0,0.2,0,0.4l0,0c0-0.1-0.1-0.4-0.1-0.5c0-0.1,0.1-0.2,0.1-0.2
	C110,346.1,110,346.2,110,346.3z M111.2,346.5c0.1-0.2,0.1-0.4,0.2-0.6c0,0,0,0.1,0.1,0.1C111.5,346.1,111.3,346.2,111.2,346.5z
	 M111.5,347.4v0.1l0,0C111.3,347.4,111.5,347.4,111.5,347.4z M111.2,339c0.1-0.6,0.2-1.1,0.5-1.6c0,0.2,0,0.5,0,0.7
	C111.6,338.4,111.3,338.8,111.2,339z M111.2,344c0,0.5,0,0.8,0.1,1.2c-0.1,0.4-0.4,0.8-0.5,1.2c-0.1-0.1-0.1-0.2-0.1-0.5
	C110.7,345.4,111,344.7,111.2,344z M110.7,346.5c-0.1,0.4-0.4,0.8-0.5,1.2l0,0c0,0,0,0,0-0.1c0-0.4,0.1-0.7,0.2-1.1
	c0-0.1,0-0.2,0.1-0.4C110.6,346.2,110.7,346.3,110.7,346.5z M112.3,324.3c-0.1,0.2-0.4,0.5-0.5,0.7c0-0.1,0-0.1-0.1-0.2
	c0.2-0.7,0.6-1.5,0.9-2.4c0,0.2,0,0.6,0,0.8C112.4,323.6,112.3,324,112.3,324.3z M112.4,326.2c0-0.1-0.1-0.2-0.1-0.2
	c0-0.1,0-0.2,0.1-0.4c0,0.1,0,0.1,0,0.2C112.3,326,112.3,326.1,112.4,326.2z M111.1,327.9c0.1-0.5,0.4-1.1,0.7-1.5
	c-0.2,1.2-0.5,2.4-0.5,3.4C111.1,329.3,111,328.7,111.1,327.9z M111.2,329.7c0,0.4,0,0.7,0,0.9c-0.4-0.5-0.5-1.2-0.4-2.1
	C111,329.2,111.1,329.5,111.2,329.7z M111.6,325.4v-0.1C111.6,325.3,111.6,325.3,111.6,325.4L111.6,325.4z M111.5,323.9
	c-0.4-2.1,0.1-5.3,3.4-9.4c-0.2,0.7-0.2,1.4-0.2,1.9c-0.9,1.4-1.4,2.8-1.8,4C112.3,321.7,111.8,322.9,111.5,323.9z M121.5,341.3
	c0.1-0.7,0.1-1.4,0.2-2.2c0,0.2,0.1,0.5,0.1,0.7c0,0.5,0,0.9,0,1.3C121.7,341,121.6,341.2,121.5,341.3z M206.8,345.2
	c0.4,1.1,0.4,1.9,0.4,2.6c-0.5,0-0.9-0.1-1.3-0.5c-0.1,0-0.1-0.1-0.2-0.1C206.1,346.5,206.4,345.7,206.8,345.2z M205.4,345
	c0-1.1,0-2.1-0.1-3.1c0.2,0.4,0.4,0.6,0.5,0.8C205.7,343.6,205.6,344.5,205.4,345z M205,339.4c0-0.2-0.1-0.5-0.1-0.8
	c0.1-0.2,0.1-0.4,0.2-0.6c0.2,0.5,0.4,0.9,0.6,1.4c0,0.5,0.1,0.8,0.1,1.2C205.6,340.1,205.3,339.7,205,339.4z M207.5,344.1
	c-0.1-0.2-0.2-0.5-0.2-0.7c0-0.1,0-0.2,0-0.2c0.8,2,1.4,3.4,1.6,4.5c-0.4,0-0.6,0-0.9,0C208.2,346.8,208.1,345.6,207.5,344.1z
	 M229.7,497.6c0.6,2.7,0.7,2.7,0.7,6.6c0,3.9-1.5,5.6,0,10.2c1.5,4.6-0.5,4.7,1.3,7.3c1.6,2.6,3.2,1.9,3.2,1.9s0.7,18.1-2.6,32
	c-2.8,12.1-1.5,14.7-4.4,22.8c-0.2-1.4-0.5-2.5-0.6-2.7c-0.7-1.6-1.1-1.9-1.1-3.2c0-1.3-0.1-0.1,0-5.6c0.1-5.5-1.6-7.5-1.6-9.5
	s1.6-5.6,1.6-11.4c0-5.6-0.1-5.9-1.9-25.3l-1.3-6.7c-3.6-12.1-12.7-11.7-6.1-32.7c2.8-8.8,3.8-13.4,4.4-18.1
	c0.6-4.7,1.4-13.5,1.4-13.5c0,2,2,1.4,2.2,4.7s1.5,5.3,2.2,8.9c0.7,3.8,1.8,4.6,2.5,6.6c0.7,2,0,3.4,1.2,6.6s2.1,3.3,2.2,4.7
	c0.1,1.4,0,8.9,0.6,10.7c0.6,1.8-1.3,1.2-2.6,2C230,494.4,229.1,494.9,229.7,497.6z M96.9,558.7c-0.6,0.8-0.7,1.9-0.7,1.9
	s-0.5-1.4-0.7-2.9s-1.2-2.1,0.1-5.3c0.5-1.2,1.3-2.4,2.1-3.3c-0.2,1.9-0.9,4-0.9,5.2C96.6,556.2,97.4,557.7,96.9,558.7z
	 M115.7,320.2c-0.1,0.2-0.1,0.5-0.2,0.7c-0.4,0.2-0.6,0.6-0.9,0.9c0.1-0.2,0.1-0.6,0.2-0.8C115,320.8,115.3,320.4,115.7,320.2z
	 M115.1,318.7C115.1,318.6,115.2,318.6,115.1,318.7C115.2,318.6,115.2,318.6,115.1,318.7C115.2,318.6,115.2,318.6,115.1,318.7z
	 M115.2,319.6c0.1-0.1,0.1-0.2,0.2-0.4l0,0C115.5,319.4,115.3,319.5,115.2,319.6z M119,342.4v0.1c-0.1,0-0.1,0-0.1,0s0,0,0.1,0
	c0.1,0.1,0.1,0.4,0.2,0.5c-0.1,0.1-0.4,0.2-0.5,0.4c-0.2,0.1-0.5,0.1-0.6,0.2c0-0.7,0-1.5,0-2.2c0.1-0.1,0.1-0.2,0.2-0.4
	C118.6,341.5,118.9,342,119,342.4L119,342.4L119,342.4z M120.6,337.5c0.1,1.6,0,3.2-0.1,4.5c-0.1,0-0.2,0.1-0.2,0.1
	c-0.4-0.8-0.7-1.5-0.9-2.2C119.7,339,120.2,338.2,120.6,337.5z M119.2,321.4c0.1-0.1,0.1-0.2,0.2-0.4c0.2-0.4,0.5-0.6,0.7-0.9l0,0
	c-0.2,0.4-0.4,0.7-0.6,1.2C119.5,321.3,119.3,321.3,119.2,321.4z M118.2,321C118.2,321,118,320.9,118.2,321c0.2-0.5,0.5-0.7,0.7-1.1
	C118.6,320.3,118.4,320.7,118.2,321z M118,316.1c0-0.1,0.1-0.2,0.1-0.4l0,0c0.1-0.1,0.2-0.4,0.5-0.5
	C118.4,315.5,118.2,315.9,118,316.1z M118,321.1c-0.1,0.2-0.2,0.4-0.4,0.6c-0.7,1.1-1.3,2-1.8,2.9c0.2-0.6,0.6-1.3,0.9-2
	C117.2,322.1,117.6,321.6,118,321.1L118,321.1L118,321.1z M115.2,323.7c0.1-0.2,0.2-0.5,0.5-0.8c-0.1,0.4-0.2,0.7-0.4,0.9
	c-0.2,0.4-0.4,0.7-0.6,1.1C114.9,324.6,115.1,324.1,115.2,323.7z M115.1,323c0-0.1,0.1-0.2,0.1-0.4c0.1-0.1,0.2-0.4,0.2-0.5
	C115.3,322.4,115.2,322.8,115.1,323z M115.7,324.2c-0.2,0.5-0.5,1.1-0.6,1.5c0.1-0.4,0.1-0.7,0.2-1.1
	C115.5,324.6,115.6,324.4,115.7,324.2z M114.9,325.6c-0.1,0.6-0.4,1.2-0.5,1.8c0,0,0,0,0,0.1c0-0.4,0.1-0.8,0.1-1.2
	C114.6,326.1,114.7,325.9,114.9,325.6z M114.6,328.3c0,0,0,0.1-0.1,0.1C114.5,328.4,114.5,328.3,114.6,328.3
	C114.5,328.3,114.6,328.3,114.6,328.3z M114.5,330.1c0.1,0,0.1,0.1,0.2,0.1c-0.1,0.2-0.2,0.6-0.4,0.8c0-0.1-0.1-0.2-0.1-0.4
	S114.4,330.3,114.5,330.1z M114.6,333c-0.1,0.2-0.2,0.5-0.4,0.6c0.1-0.2,0.2-0.6,0.4-0.8C114.6,332.9,114.6,333,114.6,333z
	 M114.2,327.7c0-0.1,0-0.1-0.1-0.2c0-0.2,0-0.5,0.1-0.7l0,0C114.2,327,114.2,327.4,114.2,327.7z M114.2,327.7L114.2,327.7
	L114.2,327.7c-0.1-0.1-0.1-0.1-0.1-0.1C114.2,327.6,114.2,327.7,114.2,327.7z M114.2,331.2c0,0.1,0.1,0.1,0.1,0.2
	c-0.1,0.2-0.1,0.5-0.2,0.6C114,331.7,114,331.5,114.2,331.2z M114.2,339c0.1-0.4,0.2-0.8,0.5-1.2c0-0.1,0.1-0.1,0.1-0.2v0.1
	c-0.2,0.6-0.5,1.1-0.7,1.6C114.2,339.3,114.2,339.2,114.2,339z M114.6,330.1c0,0-0.1-0.1-0.1-0.2c0.1-0.2,0.2-0.5,0.4-0.6
	C114.7,329.6,114.7,329.9,114.6,330.1z M114.6,328.2L114.6,328.2L114.6,328.2c0.1-0.5,0.4-0.9,0.7-1.3l0,0
	C115.1,327.3,114.9,327.7,114.6,328.2z M115.9,344.3c0,0.2,0.1,0.5,0.1,0.7c-0.6,0.4-1.2,0.7-1.8,0.9
	C114.9,345.4,115.3,344.8,115.9,344.3z M117.3,320.8c-0.1,0.1-0.1,0.2-0.2,0.4c-0.4,0.5-0.7,1.1-1.2,1.8c0.1-0.4,0.2-0.7,0.4-1.1
	c0.2-0.4,0.6-0.8,0.8-1.2C117.2,320.8,117.2,320.8,117.3,320.8z M117.2,320.6c0.1,0,0.1-0.1,0.1-0.1l0,0
	C117.5,320.6,117.5,320.7,117.2,320.6C117.3,320.7,117.3,320.6,117.2,320.6z M116.2,320.1L116.2,320.1
	C116.2,320,116.2,320.1,116.2,320.1L116.2,320.1z M116.5,318.2c-0.1,0.2-0.4,0.5-0.6,0.7c0,0,0-0.1-0.1-0.1c0.4-0.5,0.6-0.8,0.9-1.3
	C116.8,317.6,116.6,318,116.5,318.2z M115.7,317.9L115.7,317.9c0-0.2-0.1-0.5,0-0.7s0.2-0.6,0.2-0.8c0.6-0.9,1.2-1.8,1.8-2.8
	c0-0.1,0.1-0.1,0.2-0.2C117,315,116.3,316.4,115.7,317.9z M114.6,319.5c-0.1,0.1-0.1,0.4-0.2,0.5c0.1-0.7,0.4-1.4,0.7-2.1
	c0,0.1,0,0.1,0,0.2C114.9,318.4,114.7,319,114.6,319.5z M114.5,323c-0.2,0.5-0.4,0.8-0.5,1.2c0-0.2,0.1-0.6,0.1-0.8
	C114.3,323.3,114.4,323.1,114.5,323z M113.9,322c0,0.1,0,0.2-0.1,0.2C113.9,322.2,113.9,322.1,113.9,322v-0.1
	C114,321.9,114,321.9,113.9,322z M114.6,324c0,0.2-0.1,0.5-0.1,0.6c-0.2,0.5-0.4,1.1-0.6,1.5l0,0C114,325.5,114.3,324.7,114.6,324z
	 M113.9,329.6L113.9,329.6L113.9,329.6c0,0.1,0,0.2,0,0.2v-0.1C113.8,329.7,113.9,329.6,113.9,329.6z M114,332.2
	c0,0.1-0.1,0.2-0.1,0.4c0-0.4,0-0.8,0.1-1.3l0,0C113.9,331.6,113.9,331.9,114,332.2z M114.4,340.2c0.1-0.2,0.4-0.6,0.5-0.8
	c0,0.1,0,0.2,0,0.5l0,0c-0.5,0.6-0.8,1.3-1.2,1.9l0,0C114,341.3,114.2,340.7,114.4,340.2z M114.3,344.6L114.3,344.6
	c0.2-0.4,0.5-0.5,0.7-0.7c-0.2,0.4-0.5,0.6-0.7,0.9C114.3,344.7,114.3,344.7,114.3,344.6z M119.7,307c-0.8,1.2-1.8,2.5-2.8,3.8
	c0.9-1.8,2.2-3.8,4-6.1C120.5,305.5,120.2,306.2,119.7,307z M117.7,311.4c-0.1,0.4-0.4,0.7-0.5,1.1c-0.1,0.4-0.4,0.6-0.5,0.9
	c-0.4,0.5-0.8,1.1-1.2,1.5c-0.2,0.4-0.5,0.6-0.6,0.9c0.1-0.6,0.4-1.3,0.6-2.1c0.4-0.4,0.7-0.7,1.1-1.2
	C117,312.2,117.3,311.9,117.7,311.4z M113.1,324.4c0.1-0.1,0.1-0.1,0.2-0.2c0,0.2,0,0.5,0,0.7c0,0.2,0,0.5,0,0.8
	C113.2,325.3,113.1,324.9,113.1,324.4z M113.2,326.4c0,0.1,0,0.1,0,0.2c-0.2-0.5-0.5-1.1-0.5-1.6v-0.1
	C113,325.5,113.1,326,113.2,326.4z M113.3,321.4c0-0.2,0.1-0.5,0.1-0.7c0.1-0.2,0.2-0.5,0.4-0.7
	C113.6,320.4,113.5,320.9,113.3,321.4z M112.6,326.7c0,0.1,0.1,0.2,0.2,0.2C112.7,326.9,112.7,326.8,112.6,326.7L112.6,326.7z
	 M112.9,327c0.1,0.1,0.2,0.2,0.4,0.4c0,0.1,0,0.2,0,0.2c0,0.1-0.1,0.2-0.1,0.4c-0.2-0.2-0.4-0.7-0.5-1.2
	C112.7,326.9,112.9,326.9,112.9,327z M113.3,329c0,0.1,0,0.2,0.1,0.5c-0.1,0.5-0.4,0.8-0.5,1.2C113.1,330.2,113.2,329.6,113.3,329z
	 M113.7,330.2L113.7,330.2c-0.2,0.7-0.5,1.3-0.7,1.9C113.1,331.5,113.3,330.8,113.7,330.2z M113.7,332c0,0.5,0,0.9,0,1.3
	c-0.1,0.7-0.2,1.3-0.4,1.9c0,0.1-0.1,0.2-0.1,0.4c-0.4,0.6-0.7,1.2-0.9,1.6c0-0.5,0-0.9,0-1.6C112.7,334.3,113.1,333.2,113.7,332z
	 M113.3,340.2c0,0.1,0,0.1-0.1,0.2c0-0.1-0.1-0.2-0.1-0.4l0.1-0.1C113.3,340.1,113.3,340.1,113.3,340.2z M111.8,344.1
	c0-0.8,0.1-1.8,0.6-2.7c0.1-0.1,0.2-0.4,0.4-0.5c0.1,0.1,0.1,0.2,0.2,0.2c0,0.1,0.1,0.1,0.1,0.2c-0.1,0.2-0.1,0.5-0.2,0.7
	C112.5,342.7,112.2,343.4,111.8,344.1z M112.4,343.9c0,0.1,0,0.2-0.1,0.2c-0.1,0.2-0.1,0.5-0.2,0.7c-0.1,0.1-0.1,0.2-0.1,0.4
	c0-0.1,0-0.2,0-0.4C112,344.6,112.2,344.2,112.4,343.9z M112.7,340.8L112.7,340.8c0,0.1,0.1,0.1,0.1,0.2
	C112.7,341,112.7,340.9,112.7,340.8z M111.9,334c-0.2-0.7-0.1-2.1,0.7-4.2C112.4,331.2,112,332.6,111.9,334z M112,337.4
	c0,0,0,0.1-0.1,0.1c0-0.2,0-0.4,0-0.6C112,337,112,337.3,112,337.4z M112.2,340.1C112.3,340.1,112.3,340.1,112.2,340.1
	c0,0.1,0,0.1,0,0.1v0.1c-0.1,0.2-0.2,0.5-0.4,0.7c0-0.1,0.1-0.2,0.1-0.4C111.9,340.4,112,340.2,112.2,340.1z M241.6,658.9
	c-0.4-6-0.2-5.2-0.4-11.1c-0.1-6.1-2.1-20.2-2.1-23.2c0-1.9-0.8-3.3-2.2-7.1c0.8-0.6,1.8-1.4,2.7-2.1c2.6-1.9,4.6-1.3,4.6-7.4
	s1.2-8,1.2-14.2c0-6.2,0-7.9,1.8-10.6s1.4-6.4,3.3-15.5c0.5-2.6,1.5-7.4,2.8-13.1c0.5,4.2,2.1,8.9,2.2,13.4c1.6,1.9,0.7,5.3,1.3,8.5
	c0.7,4.1,3.2,7.3,2.7,11.1c-0.1,1.1-0.6,1.9-0.5,2.9c0.2,1.8,1.2,3.5,1.3,5.3c0.1,1.9-0.5,3.6,0.1,5.4s1.8,2.9,2.2,4.8
	c2.7,0.5,3.9,2.5,6.1,3.4c0-0.8,0-1.9,0-2.5c2.2,0.4,4.5,1.4,6.9,1.2c-0.1,3.1,1.9,5.3,2.6,7.5c0.7,2.6,0.4,5.2,1.8,6.8
	c1.6,2,5.4,2.2,6.9,4.4c0.7-0.4,0.9-1.2,1.8-1.4c0.6,0.4,0.7,1.2,1.3,1.6c0.6,0.5,0.6-0.7,0.9,0c-0.5,1.1-1.4,1.5-2,2.5
	c0.6-0.1,0.9,0.5,1.5,0.7c-0.1-0.6-0.5-0.8,0.1-1.2c0.2,0.2,0.5,0.4,0.7,0c0.6,0.5,0.1,0.8,0.1,1.6c1.2,0.1,1.5,0.9,2.6,1.3
	c-0.9,0.1-1.9-0.5-2.6-0.9c1.3,1.5,3.9,3.9,6.1,4.1c0.9,0.1,1.5-0.5,2.6-0.7s1.9,0,2.6-0.6c1.3-1.1,1.3-3.5,3.2-3.5
	c0,3.6-0.5,8.8-0.2,13.2c0.2,4,0.6,12.6,1.2,22.7c-0.2,0-0.4,0-0.6,0C283.9,666.7,262.2,664,241.6,658.9z M253.2,542.5
	c-0.6-0.1-0.5-0.9-0.5-1.6C253.2,541,252.7,541.9,253.2,542.5z M254.8,414.5c0-0.1,0.1-0.1,0.1-0.2c0-0.1,0-0.2,0.1-0.2
	c0,0.1-0.1,0.1-0.1,0.2C254.9,414.4,254.9,414.5,254.8,414.5C254.9,414.5,254.9,414.5,254.8,414.5z M279.6,619.4
	c0.4-0.2,0.8,0.4,0.8,0.9c-0.1,0-0.2,0-0.5,0C280.1,619.9,280.2,619.9,279.6,619.4z M279.9,619.1c-0.4-0.5-0.9-0.8-0.9-1.5
	C279.2,618,280.2,618.4,279.9,619.1z M291.5,474.1c-0.7-7.6,0.1-15.3,1.9-22.7c1.1-4.6,2-9.3,2.9-14.1c0.9-4.8,2-9.8,2.6-14.6
	c0.1-0.6,0-1.5,0-2c0.1-0.1,0.2-0.1,0.2,0c1.2,1.8,2.8,5.3,3.6,7.5c0.5,1.2,0.7,2.5,1.2,3.6c1.3,3.2,2.9,6.7,4,10.4
	c1.5,5.1,1.8,10.6,3.5,15.5c0,0.7-0.5,0.6-0.6,1.3c-0.2,1.6,0.1,4,0.1,6.2c0,3.9,0,8,0.1,11.9c0.1,2.2-0.2,4.6,0.1,6.1
	c0.2,0.9,1.3,1.4,1.9,2.1c-1.6,2.8-2.8,5.9-4.2,8.8c-1.4,2.9-2.6,6.2-3.3,9.8c-0.1,0.8,0,1.8-0.1,2.6c-0.2,1.3-0.8,2.5-1.2,3.6
	c-0.9,4-0.9,8.4-1.2,12.9c-0.2,5.6-1.5,11.3-2.1,16.6c-1.3,11.3-2.7,22.8-2.9,34.8c-0.6-0.6-0.7-1.5-0.9-2.2
	c-1.6-5.5-2.8-12.2-2.9-19.7c-0.1-7.9-1.1-15.7-1.5-23.3c-0.8-11.9-1.9-23.5-1.9-36.1c0-3.9,0.8-7.6,1.2-11.7
	C292.1,479.1,291.8,476.6,291.5,474.1z M313.3,463.7c0.6,0.2,0.6,0.9,0.8,1.5c-0.2,0-0.2,0.1-0.5,0.1
	C312.9,465.4,313.3,464.4,313.3,463.7z M317.2,469.2c-0.5-0.2-0.5-0.6-0.1-0.8C317.4,468.4,317.2,469,317.2,469.2z M409.2,272.3
	c0.1-1.1,0.9-2.7,0-4.1c0.5-1.6,1.2-4.1-0.1-5.3c-0.8-0.1-1.1,0.4-1.6,0.5c-0.5-1.1,0.4-2.1,0.5-2.8s-0.1-1.4-0.1-2.1
	c0-1.3,0.5-3.1,0.6-4.6c0-0.7-0.2-1.6-0.1-2c0.4-1.4,2.5-2.2,3.5-0.6c0.1,0.4-0.1,0.7-0.1,0.9c0.8,1.5,1.5,3.2,2.8,4.1
	c1.2,2.9,3.6,5.1,6.2,6.8c0.8,1.4,2.2,2.2,3.9,2.8c0,0.1,0,0.2,0,0.5c1.6,0.9,4.2,1.4,4.4,3.4c-1.2,2-0.7,4.1,0.6,5.9
	c1.5,2,3.4,4.1,5.4,5.6c0.6,0.5,1.1,1.2,1.5,1.5c1.8,1.5,3.9,2.4,4.9,4c0.5,0.7,0.7,1.8,1.2,2.6c0.4,0.8,1.1,1.5,1.3,2.2
	c0.1,0.5,0,0.8,0.1,1.3c0.2,0.5,0.7,0.8,0.9,1.3c0.1,0.2-0.1,0.5,0,0.6c0.6,1.2,2,2,2.8,3.2c1.4,1.8,5.6,4.5,8.7,4.7
	c1.1,0.1,2.4-0.5,3.5-0.2c0.4,0.1,0.6,0.5,1.2,0.7c2.6,1.1,6.4,0,6,3.9c3.9,3.2,5.2,9.1,7.4,13.9c2.2,1.5,4.7,1.6,6.8,2.8
	c1.3,0.8,2.8,3.3,4.1,4.8c2.4,2.8,4.5,5.6,7.1,8.2c1.5,1.5,3.2,2.7,4.8,4c0.1,0.5-0.6,0.2-0.5,0.7c0.6,0.7,1.6,1.1,2.6,1.4
	c-1.1,0.8-1.9,0-3.3,0c0,0.6,0.8,0.4,1.3,0.6c-3.4,0.2-6.7-0.9-8.8-2.5c-0.7,0,0.1-0.2,0-0.6c-1.6-0.5-2.8-1.5-4.1-2.2
	c-0.2-0.4,0-0.1,0.1-0.5c-0.5-0.2-0.8-0.6-1.5-0.6c-0.6-1.3-2.5-1.3-3.2-2.6c-5.2-2.9-11.4-3.1-16.8-5.6c-0.5,0.1-0.7,0.5-1.4,0.5
	c-0.8-3.3-3.3-6-5.5-8.4c-1.4-1.5-2.6-3.2-5.5-2.6c-0.1,0.7,1.3,0.7,0.9,1.2c-2.1-1.4-5.2-1.6-8.1-2.6c-3.5-1.1-8.2-0.2-13.5-0.5
	c-2-0.1-3.8,0.4-5.6,0.2c-1.2-0.1-2.5-0.2-4.1-0.5c-5.6-0.6-8-4.8-13.1-4.7c-2.1,0.1-3.9,0.5-4.6,2.1c-1.4,0.1-2.4-0.4-3.4-0.7
	c-0.1-0.8-0.9-1.6-1.2-2.5c-0.2-1.3,0.1-2.7,0-4c-0.2-2.5-1.8-4.1-2.1-6.1c0-0.7,0.6-0.8,0.7-1.3c0.9-4.9,4.2-7.6,5.3-12.5
	c3.3-0.1,4.4-2.2,5.4-5.4c0.6-2,1.6-4.1,1.9-5.5C409.3,274.8,409.1,273.5,409.2,272.3z M439.5,449.1c1.2,5.9,1.9,12.1,2.8,18.2
	C440.4,461.9,439.3,455.9,439.5,449.1z M313.4,468.5c-0.1,4.6-0.1,9.4-1.2,13.2c0-5.4,0-8.6-0.1-13.4
	C312.4,468.1,313.1,468.4,313.4,468.5z M458.6,619.5c0.7-5.2,0.9-10.4,0.4-15.5c2-0.4,3.3-1.3,4.8-2.1c0.4,0.4,0.2,1.1,0.8,0.9
	c2.8-0.2,1.6-3.4,1.5-5.3c0.6,0,0.7,0.2,0.9-0.1c-2.5-6.5-3.3-14.8-4.4-22.6c-0.8-5.9-1.5-11.9-2.5-17.8c-2.9-20.2-7.1-40-10.9-59
	c1.1-2.6-0.4-4.1-1.3-6.6c-1.2-3.2-2.1-5.8-3.2-8.8c-0.6-1.6-0.6-3.4-0.9-4.9c-0.2-0.8-0.9-1.6-0.9-2.6c-0.2-1.9,0.4-3.6-0.6-5.6
	c0.6,0.1,0.2,1.3,0.9,1.3c-0.4-8-2.1-15.7-3.2-23.4c0-0.5,0.6-0.6,0.5-1.3c0-0.7-0.8-0.6-0.8-1.3c1.5-10.5,4.7-20.7,9.3-28.8
	c2-3.6,4.6-7.1,6.7-10.5c2.1-3.5,4.1-7.4,7.5-9.7c2.5,0.6,4.8-0.6,7.3-1.2c2-0.5,3.9-1.5,5.6-1.6c2.1-0.2,4.4,0,6.4,0.1
	c7.8,0.4,15.5-0.2,22.6-0.6c6.7-0.4,12.7-1.4,18.9-2.5c5.4-0.8,10.8-1.8,15.5-3.3c9.7-2.9,17.8-7.5,23.8-13.7
	c0.9-3.8,1.4-6.8,1.2-10.2c-0.4-4.4-3.1-6-4.6-8.9c-0.7-1.5-1.1-3.2-1.8-4.7c-2.5-5.6-5.4-10.7-10.7-13.7c-1.1-0.6-2.5-0.9-3.5-1.6
	c-1.2-0.8-1.9-2.5-2.9-3.5c-1.2-1.2-2.4-2.1-3.4-3.2c-0.1-0.6,0.5-0.5,0.1-0.8c-0.5-0.4-0.9,0.2-0.9-0.6c0.8-0.1,1.4-0.2,1.8-0.8
	c-0.5-1.3-2.2-1.5-3.6-1.9c0-0.2,0.2-0.2,0.1-0.6c-2-0.7-3.4-2.4-4.9-3.6c-4.9-4-10.7-6.6-16.5-9.7c0.6-3.2-1.8-4.7-4.8-4.7
	c-0.7,0.4,0.4,1.1-0.2,1.3c-4.5-2.2-8.6-4.7-12.5-7.4c0.5-0.6-0.2-1.9-0.1-2.6c-0.5-0.5-1.1-0.6-1.4-1.2c-1.2,0.4-2.6-0.6-3.6-0.2
	c-0.8-0.1,0,0.8-0.6,0.8c-3.1-1.5-5.5-3.8-9.7-4.1c-2-1.5-4.7-2.5-6.6-4.2c-1.5,0.4-2-1.3-2.8-2.1c-0.5-0.5-1.2-0.6-1.6-0.9
	c-0.9-0.8-1.5-2-2.6-2.6c-2.5-3.8-4.6-7.8-9.1-9.5c-0.5-1.3-1.9-2-2.8-3.2c-0.8-0.9-1.2-2.1-2.5-2.7c-2.4-1.2-5.9-0.4-8.7-1.3
	c-0.8-0.2-1.5-0.8-2.2-1.2c-0.9-0.4-1.9-0.2-2.8-0.6c-1.9-0.6-3.4-1.9-4.9-2.6c-2.6-0.4-4.2-1.1-6.4-2.1c-1.6-0.8-3.3-1.4-4.7-2.1
	c-1.5-0.7-2.2-1.8-3.3-2.6c-0.5-0.4-1.2-0.5-1.8-0.8c-1.2-0.8-2-2.2-3.5-2.5c-0.7,0.1-0.8,0.8-1.6,0.7c-0.6-0.8-1.3-1.4-1.9-2.1
	c0.6-0.5,0.2-1.4,0.5-2c-0.5-0.1-0.6,0.8-0.8,0.5c0.8-1.1,1.4-3.3,0.8-4.9c1.1-0.2,0.4-0.7,0.9-0.9c0,0.8,2.6-0.5,2.5-1.3
	c0.6,0.4,1.5-0.5,2.1-0.9c-0.8,0.1,0.1-0.4,0.1-0.6c0.4,0-0.4,0.6,0.2,0.5c1.8-1.5,4.5-2.7,5.1-4.8c-0.1,0.5,0.2,0.2,0.5,0.1
	c1.5-2.6,4.8-5.1,5.3-9.1c0.4-3.3,0.4-6.9-0.8-9.4c0,1.1,0.7,2.2,0,3.3c0.4,0.5,0.6-0.2,0.7,0.7c-1.4,0.5-0.6,3.1-1.5,3.9
	c0-1.2,0.6-2,0.7-3.2c0.4-2.9-1.8-5.6-2-8c-0.1-0.2-0.7,0-0.7-0.2c-0.6-1.9-1.5-3.3-3.3-4c-0.1-2-2.8-2.9-4-4.1
	c-0.5-0.5-1.3-0.8-1.9-1.2c-2.7-1.4-5.6-3.3-8.7-3.9c-0.1-0.5,0.5-0.1,0.2-0.6c-1.5-0.8-2.8,0.2-4.2-0.7c0-0.2,0.6-0.1,0.5-0.6
	c-2.7-0.7-5.1-1.3-7.4-2.1c-0.6-0.1-0.2,0.6-0.8,0.5c0-0.2,0.4-0.2,0.2-0.6c-6.8-1.4-15.2-2.2-23.1-1.5c-2,0.2-4.1,0.2-6,0.6
	c-6.8,1.3-13.9,2-19.7,4.4c-1.2,0.5-2.4,1.3-3.5,1.9c-1.3,0.6-2.7,0.8-4,1.4c-1.1,0.5-2.2,1.4-3.3,2.1c-1.2,0.8-2.4,1.4-3.3,2.1
	c-4.4,3.3-6.8,8.2-8.9,13.5c0.2,0.5,0.2,1.1,0.5,1.5c-1.2,3.3,0.6,6,0.9,8.7c0.6,1.1,1.6,1.8,1.9,3.3c1.4,0.8,2,2.4,2.9,3.3
	c0.9,0.8,1.9,1.4,2.6,2.2c0.8,0.1,0-0.5,0.7-0.1c1.5,1.4,2.5,3.4,4.7,4.1c0.6,1.9,2.5,4.5,2.8,6.4c0.5,2.8,0.1,5.6,0.6,8.4
	c0.5,0.6,1.5,1.8,0.8,2.6c-1.5-0.4-1.6-2-3.9-1.6c-0.8,0.5-0.9,1.6-1.6,2.1c0.2,1.1-0.8,1.9-0.9,2.9c-0.1,0.9,0.2,1.9,0.2,2.9
	c0.1,2.8-0.1,5.6,0.2,8c0,0.1,0.4,0.2,0.5,0.2c0,0.1-0.2,0.2-0.1,0.6c0.7,4.7,3.3,5.6,7.1,6.9c0.5-0.1,0.7-0.4,1.4-0.2
	c1.5,1.9,1.9,5.3,1.8,8.5c0,1.1-0.5,2.1-0.5,3.2c0,1.6,0.7,3.6,0.1,5.3c-0.2,0.7-1.1,1.1-1.4,1.6c-1.3,2.4-1.5,5.5-2.7,7.6
	c1.5,2.1-1.9,5.8-3.6,6.1c-4.4,0.8-9.7,2-13.7,3.3c-1.2,0.4-2.6,0.6-3.6,0.9c-3.2,1.2-6.4,2.7-9.3,2.8c-1.9,0.1-4,0.9-6,1.4
	c-2.2,0.5-4.4,0.9-6.2,0.9c-1.9,1.2-4.2,1.9-6.1,2.6c-3.1,1.2-5.2,1.4-7.4,3.5c-1.4,1.4-3.1,2.5-4.1,3.6c-1.4,1.6-2.2,3.8-4.1,5.3
	c-1.3,3.3-2.9,6.6-4.2,10c-1.3,3.5-2.4,7.1-4.9,9.4c-1.1,2.9-2.2,6.4-3.5,9.4c-0.7,1.8-1.2,2.8-1.5,4.9c-0.2,1.8-0.8,3.5-1.2,5.4
	c-0.4,1.9-0.4,4-0.7,5.9c-0.2,1.3-0.9,2.5-1.2,3.6c0,0.4,0.1,0.7,0.1,0.9c-0.2,3.9-1.9,7.4-2.1,11.2c-0.9,1.4-1.2,3.4-1.5,5.4
	c-0.2,0.6,0.5,0.2,0.2,0.8c-0.2,0-0.1-0.4-0.5-0.2c0.2,1.8-0.4,3.6-0.8,5.6c-0.4-3.1-0.8-6-1.4-8.8c-2.5-10.8-2.1-11.4-4.7-18.1
	c-2.6-6.7-1.3-7.6-3.5-9.7c-2.2-2-2.6-5.9-5.3-7.5c-2.7-1.8-3.2-0.9-4.4-1.5c-1.3-0.6-5.3-1.9-5.6-2.8c-0.5-0.9-1.9-6.8-6-9.5
	c-4.1-2.7-4.2-3.6-6.6-3.9c-2.2-0.1-4.4,0-6.9-0.8c-0.4-0.1-0.7-0.2-1.1-0.2c0-2.1-0.6-5.2-2.7-9.1c-0.1-1.4-0.5-2.8-0.9-4.4
	c2.5-6.6,5.9-16.9,5.2-26.2c-0.9-12.9,2.5-27.3-14.7-47c-17.1-19.7-23.1-20.9-27.1-19.5c-4,1.4-3.9-4.1-14.9,1.5s-19.3,11.7-27,37.9
	c-0.2,0.9-0.5,1.9-0.8,2.8l-0.1-0.1c-2,4.5-3.4,9.1-4.2,13.9c-1.1,1.3-2.2,2.5-2.7,3.9c-1.3,3.3-3.3,2.6-7.8,8.1
	c-4.4,5.5-0.6,7.3-0.6,7.3c-2-1.1-2.1-5.4,6.2-11.5c1.6-1.2,2.9-2.5,4.1-3.8c-1.1,1.5-2.6,3.1-5.2,7.6c-0.6,1.1-1.1,2-1.4,2.8
	l-0.1,0.1c-4.8,5.9-5.1,9.9-4.4,12.1c-0.2,0.8-0.4,1.6-0.5,2.2c-0.9,2.1-0.2,3.4,0.4,4.1c0,0.4,0,0.7,0.1,1.1c0,0,0-0.4,0-0.9
	c0.2,0.2,0.4,0.4,0.5,0.4c-0.2-0.1-0.4-0.2-0.5-0.5c0-0.2,0-0.6,0.1-0.8c0.1,0.1,0.2,0.2,0.2,0.2c-0.1-0.1-0.1-0.1-0.2-0.2
	c0.1-0.9,0.4-2.2,0.7-3.9c0.1,0.1,0.1,0.2,0.2,0.4c0.1,0.7,0.5,1.3,0.7,1.5c-0.7,1.4-1.1,2.5-1.2,3.3c-0.4,1.4-0.1,2.2,0.1,2.7l0,0
	c-0.1,0.5-0.1,0.9-0.2,1.3c-0.6,1.9-1.1,3.6-1.3,5.2c-1.9,3.3-2.9,6-3.4,8.2c0,0.2-0.1,0.4-0.1,0.5c-1.2,0.5-2.1,0.8-3.8,2.1
	c-4.4,3.3-3.6,3.4-3.6,4.6c0,1.2-2.7,1.4-4,1.6c-1.3,0.2-2.5-0.5-3.5,0.6c-1.2,0.9-6.6,5.2-6.8,7.9c-0.2,2.7-2.8,2.7-4,8.8
	c-1.2,6.1,0.1,2.8-3.2,10.9s-7.5,21.2-9.1,31.5c-1.5,10.4-1.6,7.1-6.6,27.1c-4.8,19.9-9.7,39.4-9.5,44.4c0.1,3.8,1.4,4.1,1.1,5.2
	c-11.8-30.2-18.2-63.3-18.2-97.9c0-149.2,121.5-270.7,270.7-270.7S576.7,246.8,576.7,396C576.7,488.7,529.9,570.7,458.6,619.5z
	 M500,341.6c0.6-0.5,2.1,0.4,2.7,0.8c-0.5,0-0.9,0-1.4,0C501.6,341.6,500.4,341.7,500,341.6z"/>
</svg>
