<?xml version="1.0" encoding="utf-8"?>
<!-- Generator: Adobe Illustrator 18.1.1, SVG Export Plug-In . SVG Version: 6.00 Build 0)  -->
<svg version="1.1" id="Layer_1" xmlns="http://www.w3.org/2000/svg" xmlns:xlink="http://www.w3.org/1999/xlink" x="0px" y="0px"
	 viewBox="0 0 612 792" enable-background="new 0 0 612 792" xml:space="preserve">
<g>
	<g>
		<path fill="#FFFFFF" d="M461.9,413.5c-7.8,0-15.9,2-24.8,6.2l-39.7,22.7c-2,1.2-3.3,3.4-3.3,5.8v145c0,2.4,1.2,4.5,3.3,5.6
			c1.1,0.6,2.1,0.9,3.3,0.9c1.1,0,2.2-0.4,3.3-0.8l59.8-33.8l4.8-2.8c8.2-4.8,13.2-7.8,21.7-16.8c11.8-12.5,16-28.8,16-40v-41.1
			C506.1,439.4,490.9,413.5,461.9,413.5z M468.8,475.3v15.4c0,19.9-3.2,28.2-21.8,39l-11.4,6.6v-68.1l14.4-8.2
			c3.4-1.8,6.8-2.8,9.7-2.8C465.7,457.1,468.8,463.2,468.8,475.3z"/>
	</g>
	<g>
		<g>
			<path fill="#FFFFFF" d="M544.8,282.8L335.3,405.7c0,0-18.7,8.6-18.7,39.5c0,22.1,0,215.6,0,215.6s-0.6,14.6,14,23.9
				c14.6,9.2,29.1,0.6,29.1,0.6l198-114.4c0,0,7.5-4.2,11.9-12.1c4.4-8,3.8-13.9,3.8-13.9s0-225,0-243.7
				C573.3,282,555.9,276.1,544.8,282.8z M546.9,546.5c-2.5,4.5-5.3,6.1-5.3,6.1l-181,103.6c0,0-2.1,1.3-4.8,1.3
				c-1.6,0-3.2-0.5-4.6-1.4c-4.5-3.1-4.4-7.3-4.4-7.3v-0.1V444.5v-0.1c0,0-0.1-6.4,3.1-11.4c3.2-5.1,8.2-7.9,8.2-8l177.6-102.5
				c0,0,4-2.6,8.7,0c4.8,2.6,4.7,7.6,4.7,7.8V537C549.2,537.2,549.6,541.5,546.9,546.5z"/>
		</g>
	</g>
	<g>
		<g>
			<path fill="#FFFFFF" d="M38.7,301.3c0,18.7,0,243.7,0,243.7s-0.6,5.9,3.8,13.9c4.4,8,11.9,12.1,11.9,12.1l198,114.4
				c0,0,14.4,8.6,29.1-0.6c14.7-9.2,14-23.9,14-23.9s0-193.5,0-215.6c0-31-18.7-39.5-18.7-39.5L67.2,282.9
				C56.1,276.1,38.7,282,38.7,301.3z M62.7,537.2V330.4c0-0.2-0.1-5.3,4.7-7.8c4.8-2.6,8.7,0,8.7,0l177.6,102.5c0,0,5.1,2.8,8.2,8
				c3.2,4.9,3.1,11.4,3.1,11.4v0.1v204.2v0.1c0,0,0.2,4.4-4.4,7.3c-1.4,0.9-2.9,1.4-4.6,1.4c-2.7,0-4.8-1.2-4.8-1.3l-181-103.6
				c0,0-2.8-1.6-5.3-6.1C62.4,541.5,62.7,537.2,62.7,537.2z"/>
		</g>
	</g>
	<g>
		<path fill="#FFFFFF" d="M411.5,250.9l-21.9-12.6c-2-1.2-4.6-1.2-6.6,0l-54.8,31.8l-17.3-10l39.5-22.9c2-1.2,3.3-3.4,3.3-5.8
			c0-2.4-1.3-4.6-3.3-5.8L328.5,213c-2.1-1.2-4.6-1.2-6.6,0l-46.1,26.7l-16.2-9.4l48.3-27.9c2-1.2,3.3-3.4,3.3-5.8s-1.3-4.6-3.3-5.8
			l-21.9-12.6c-2-1.2-4.6-1.2-6.6,0l-87.9,51c-2,1.2-3.3,3.4-3.3,5.8c0,2.4,1.3,4.5,3.3,5.8l125.6,72.4c1.1,0.6,2.1,0.9,3.3,0.9
			s2.2-0.4,3.3-0.9l87.9-50.8c2-1.2,3.3-3.4,3.3-5.8C414.7,254.3,413.5,252.1,411.5,250.9z"/>
	</g>
	<g>
		<g>
			<path fill="#FFFFFF" d="M306,395.2c11.3,0,25.8-8.6,25.8-8.6s191.4-112.3,202.7-118.9c16-9.4,16.9-26.5,1.1-35.7
				c-44.4-25.7-216.6-125.9-216.6-125.9s-4.7-3.2-12.9-3.2s-13.3,3.2-13.3,3.2L71.2,234.3c0,0-8.2,4.5-8.2,14.8
				c0,6,2.9,11.8,7.8,14.6c5.4,3.2,214.9,126,214.9,126S294.8,395.2,306,395.2z M112.7,241l180.8-106.2c0,0,4.9-3.4,12.6-3.4
				c7.7,0,12.5,3.4,12.5,3.4l177.8,105.8c0,0,4.6,2.6,4.6,7.6c0,5.6-4.6,7.9-4.6,7.9L319.8,356.9c0,0-5.9,3.4-13.8,3.4
				c-7.9,0-13.7-3.4-13.7-3.4l-179.6-101c0,0-3.9-2.2-3.9-7.5C108.9,243.2,112.7,241,112.7,241z"/>
		</g>
	</g>
	<g>
		<path fill="#FFFFFF" d="M216.3,442.5l-28.2-16.4c-2-1.2-4.6-1.2-6.6,0c-2,1.2-3.3,3.3-3.3,5.8v47.7l-35.9-20.8v-55.4
			c0-2.4-1.3-4.5-3.3-5.6l-28.2-16.6c-2-1.2-4.6-1.2-6.6,0c-2.1,1.2-3.3,3.3-3.3,5.8v145c0,2.4,1.3,4.5,3.3,5.8l28.2,16.6
			c2,1.2,4.6,1.2,6.6,0c2.1-1.2,3.3-3.4,3.3-5.8v-49.2l35.9,20.7v56.8c0,2.4,1.3,4.6,3.3,5.8l28.2,16.4c1.1,0.6,2.1,0.9,3.3,0.9
			s2.2-0.4,3.3-0.9c2.1-1.2,3.3-3.4,3.3-5.8V448.3C219.6,445.9,218.3,443.7,216.3,442.5z"/>
	</g>
</g>
</svg>
