<?xml version="1.0" encoding="utf-8"?>
<!-- Generator: Adobe Illustrator 18.1.1, SVG Export Plug-In . SVG Version: 6.00 Build 0)  -->
<svg version="1.1" id="Layer_1" xmlns="http://www.w3.org/2000/svg" xmlns:xlink="http://www.w3.org/1999/xlink" x="0px" y="0px"
	 viewBox="0 0 612 792" enable-background="new 0 0 612 792" xml:space="preserve">
<g>
	<path fill="#FFFFFF" d="M201.7,321.9c107.7-65.9,149.8-51.2,166.2-28.1c11.3,15.9,10.4,35.8,10.4,35.8c1.6-0.9,3.3-1.9,4.9-2.9
		c117.1-67.8,152.6-35.9,161.4-22.9c1.8,2.7,2.5,4.6,2.5,4.6l-0.5-2.6l-11.3-60.3l-0.2-1.1c-45.8-51.4-140.3,5.1-162.9,19.8
		c-3.2,2.1-4.9,3.3-4.9,3.3c-0.2-17.2-4-29.8-10.2-38.7c-35.1-49.9-149.2,16.1-167.8,27.3L201.7,321.9z"/>
	<path fill="#FFFFFF" d="M220.6,421.1l6.5,27.5c1.2-0.7,2.4-1.4,3.5-2.1c104.9-63.9,145.9-50.5,161.8-28
		c11.5,16.2,9.9,37.2,9.9,37.2c1.8-1.1,3.5-2,5.2-3.1c117.2-67.7,152.5-35.7,161.1-22.7c1.8,2.6,2.5,4.5,2.5,4.5l-0.5-2.6
		l-11.3-60.4l-0.2-1.1c-45.8-51.4-140.3,5.1-162.9,19.8c-3.2,2.1-4.9,3.3-4.9,3.3c-0.2-17.4-4.1-30.1-10.5-39.1
		c-35.9-50.6-153,18.1-167.7,27.1L220.6,421.1z"/>
	<path fill="#FFFFFF" d="M581.2,496.5c-38.1-52.8-139.6,6.7-162.3,21.1c-2.9,1.9-4.6,2.9-4.6,2.9c-0.9-16.7-4.9-29-11.2-37.8
		c-34.7-48.8-138.2,8.6-159.9,21.5c-2.6,1.5-4.1,2.5-4.1,2.5c-1.4-13.5-5.2-23.8-10.6-31.4c-39.2-55.6-167.1,26.2-167.1,26.2
		l11.4,63.2c1.3-0.7,2.6-1.4,3.9-2.1c109-60.1,149.9-43.8,165.4-21.8c9.8,14,9.3,30.2,9.3,30.2c1.5-0.8,3.1-1.8,4.7-2.6
		c103.2-56.7,143.6-40.3,159.2-18.1c10.4,14.6,10.1,31.7,10.1,31.7c1.5-0.9,3.1-1.8,4.6-2.7c122.6-71.9,158.6-29,164.3-20.1
		c0.6,0.9,0.8,1.4,0.8,1.4l-0.1-0.8l-11.8-60.5C582.5,498.3,581.8,497.3,581.2,496.5z"/>
	<path fill="#FFFFFF" d="M219.1,418.5c1.1,1.6,1.4,2.6,1.4,2.6V421l-7.5-39.5l-9.7-50.8l-1.6-8.8l-12.5-65.9l-4.4-23.2
		c-51.4-55-167.8,23.3-167.8,23.3L51,445.2c1.3-0.8,2.7-1.5,4-2.2C178.4,372.6,212.3,407.9,219.1,418.5z M172.1,343.4l-9.4-8.8
		l-15.4,4.6l10-9.3l-10.4-8.2l15.5,3.1l9.1-9.8l-0.4,11.2l16,2.2l-15.9,3.9L172.1,343.4z M134.1,276.3l15.5,3.1l8.9-9.8l-0.4,11.2
		l16,2.2l-15.8,3.9l0.8,11.2l-9.4-8.8l-15.4,4.6l10-9.3L134.1,276.3z M145.9,236.3l16,2.2l-15.8,3.9l0.8,11.2l-9.4-8.8l-15.4,4.6
		l10-9.3l-10.4-8.2l15.5,3.1l8.9-9.8L145.9,236.3z M106.9,288.8l-9.4-8.8L82,284.5l10-9.3L81.7,267l15.5,3.1l9.1-9.8l-0.4,11.2
		l15.9,2.2l-15.8,3.9L106.9,288.8z M68.5,320.6l-9.4-8.8l-15.4,4.7l10-9.3l-10.5-8.2l15.7,3.1l8.9-9.8l-0.4,11.2l16,2.2l-15.9,3.9
		L68.5,320.6z M46.7,257.5l9.1-9.8l-0.5,11.2l16,2.2L55.6,265l0.8,11.1l-9.4-8.8l-15.4,4.6l10-9.3l-10.4-8.2L46.7,257.5z
		 M56.1,344.1l15.5,3.1l8.9-9.8l-0.4,11.2l16,2.2l-15.8,4l0.8,11.2l-9.4-8.8l-15.4,4.7l10-9.3L56.1,344.1z M94.3,411.2l-9.4-8.8
		l-15.4,4.7l10-9.3l-10.4-8.2l15.7,3.1l8.9-9.8L93.3,394l16,2.2l-15.8,3.9L94.3,411.2z M94.9,329.7l10-9.3l-10.4-8.2l15.7,3.1
		l8.9-9.8l-0.4,11.2l16,2.2l-15.8,3.9l0.8,11.2l-9.4-8.8L94.9,329.7z M136.3,378.3l-9.4-8.8l-15.4,4.6l10-9.3l-10.4-8.2l15.5,3.1
		l8.9-9.8l-0.4,11.2l16,2.2l-15.9,3.9L136.3,378.3z M159.7,366.9l15.7,3.1l8.9-9.8l-0.4,11.2l16,2.2l-15.8,3.9l0.8,11.1l-9.4-8.8
		l-15.4,4.7l10-9.3L159.7,366.9z"/>
</g>
</svg>
