<?xml version="1.0" encoding="utf-8"?>
<!-- Generator: Adobe Illustrator 18.1.1, SVG Export Plug-In . SVG Version: 6.00 Build 0)  -->
<svg version="1.1" id="Layer_1" xmlns="http://www.w3.org/2000/svg" xmlns:xlink="http://www.w3.org/1999/xlink" x="0px" y="0px"
	 viewBox="0 0 612 792" enable-background="new 0 0 612 792" xml:space="preserve">
<g>
	<path fill="#FFFFFF" d="M323.2,46.4c1.5,22.5-2.3,41.7,1.8,61c2.8,13.1,9.9,22,11.1,34.3c1.5,13.7-1.1,22.5-7.4,33.3
		c-7.6,13.1-10,17.3-17.6,4.6c-5.9-9.9-11.3-24-9.3-38.9c1.8-13.4,13.8-22.8,15.7-34.3c3.4-19.5-3.8-48.3,1.8-60.2"/>
	<path fill="#FFFFFF" d="M309.5,237.9c-22.3-7.7-38.6-26.6-38.8-54.5c0-4.1,2.3-9,1.8-13.9c-0.9-9.5-7.4-20.1-11.1-29.6
		c-4.1-10.6-7.9-20.5-12.1-28.7c0.4-0.9,0.9-1.7,1.8-1.8c0.9-0.6,1.7-1.1,1.8,0c10.6,15.9,16.3,36.7,25,54.5
		C301.7,174.5,319.8,202,309.5,237.9z"/>
	<path fill="#FFFFFF" d="M376.1,111.1c0.6,0,1.2,0,1.8,0c5.1,3.3-1,9.8-2.8,13.9c-6,13.5-12.4,31.4-18.5,45.4
		c5.1,37-10.7,60.8-37.9,68.4c-9.4-34.9,7.7-62.6,32.3-72.1C359.1,147.9,366.9,128.8,376.1,111.1z"/>
	<path fill="#FFFFFF" d="M250.2,173.1c0.6,0,1.2,0,1.8,0c9.9,15.1,16.3,33.6,24,50.9c26,9.5,45.6,32.9,38.8,69.4
		c-24.4-6.7-41-23.7-43.4-51.9c-0.4-3.9,0.7-8.8,0-12.9c-3.3-18.3-20.5-35-22.2-52.7C249.1,174.4,250.2,174.2,250.2,173.1z"/>
	<path fill="#FFFFFF" d="M386.2,175.8c-2.4,18.8-15.1,35.4-22.2,52.7c2.9,35-14.9,57.2-42.6,64.8c-7.3-35.4,11.6-59.7,37-68.4
		c8.9-15.7,16.6-32.8,25-49C384.4,175.8,385.2,175.8,386.2,175.8z"/>
	<path fill="#FFFFFF" d="M245.5,220.2c0.6,0,1.2,0,1.8,0c11.1,17,17.9,38.2,27.7,56.5c26.1,9.2,44.7,30.5,38.8,68.4
		c-20.1-5.6-32.9-16.7-39.8-35.1c-3.3-8.9-2.3-17.6-4.6-29.6C265.7,259.8,244.4,241,245.5,220.2z"/>
	<path fill="#FFFFFF" d="M388,230.5c-0.4,17.4-19.4,35-23.2,52.7c-1,4.4,0.5,9.8,0,13.9c-3.2,26.6-18.2,43.1-44.4,49
		c-4.4-36.1,12.2-58.4,38.8-66.6c9-16,17-32.9,25.9-49C386.2,230.5,387.2,230.5,388,230.5z"/>
	<path fill="#FFFFFF" d="M244.7,272.1c1,0,1.8,0,2.8,0c8.7,18.8,17.7,37.2,25.9,56.5c25.1,9.4,44.8,33.2,37,69.4
		c-24.8-6.2-42.2-25.9-42.6-55.5c0-2.6,1.3-5.5,1-8.3C265.4,311.9,244.4,292.7,244.7,272.1z"/>
	<path fill="#FFFFFF" d="M385.2,284.2c0.2,16.7-19.8,35.9-23.2,52.7c-0.9,4.5,0.4,9.6,0,13.9c-2.7,28.3-19.5,42.7-44.4,49.9
		c-4.8-36.7,12.3-59.1,38.8-67.6c9.2-15.9,17.2-32.8,25.9-49C383.4,284.2,384.4,284.2,385.2,284.2z"/>
	<path fill="#FFFFFF" d="M308.5,456.2c-26.5-8.2-42.1-25.4-44.4-54.5c-0.4-4.8,1.6-9.8,1-14.8c-1.2-9.3-8.7-20.7-12.9-30.5
		c-4.6-10.7-9.6-20.9-12.1-30.5c0.7-0.1,1-1,1.8-1c0.9-0.6,1.7-1.1,1.8,0c3.7,7,9.3,18.7,13.9,28.7c4,8.9,6.7,21.6,12.1,27.7
		c4,4.6,11.6,5.5,15.7,8.3C303,401.7,315.4,425,308.5,456.2z"/>
	<path fill="#FFFFFF" d="M385.2,334.1c5.6,2.9-0.2,10.4-1.8,13.9c-5.2,11.2-17.9,28.8-20.4,40.8c-0.7,3.9,0.2,8.1,0,12.1
		c-2.2,31.6-20.1,50-47.2,57.3c-6.8-37.7,13.1-63.1,40.8-72.1c10-16.5,18.1-35,27.7-51.9C384.6,334.1,385,334.1,385.2,334.1z"/>
	<path fill="#FFFFFF" d="M159.5,436.8c32.7,0,65.4,0,98.1,0c-2-12.7-16.5-30.3-14.8-43.4c7.1,4.6,8.7,14.6,12.1,22.2
		c3.5,7.9,8.3,15.4,11.1,23.2c12.9,8.5,31,19.8,37.9,37c8.3,20.9,1.2,50-10.1,63.8c12.4,11.6,11.2,40-1.8,49.9
		c16.5,16,9.4,49-12.1,54.5c-20.1,0-38.4,0-57.3,0c-18.4,0-39.5-3.9-57.3,0c-7.3,1.6-12.8,9.3-18.5,12.1
		c-17.6,8.5-44.9,13.2-67.6,11.1c-19.8-1.8-34.5-10-49-18.5c-8.7-5.1-13.3-10.4-29.6-8.3c0.6-67.2-1.2-136.9,1-202.7
		c9.8-1.5,20.7,2,31.5,0c8.5-1.6,22.5-11.2,32.3-16.6c31-17,66-37.9,94.3-53.7c0.7-0.1,0.9,0.4,1,1
		C172.1,384.6,175.5,422.8,159.5,436.8z M137.3,399.8c10.7,16.6-17.2,28.6-26.8,14.8c-13.4,8.2-27.5,15.7-40.8,24
		c22.2,0,44.4,0,66.6,0c7.8-11.1,20.7-29.5,12.9-47.2C146.1,394.9,140.4,396,137.3,399.8z M137.3,410.9c1.5-5.4-0.2-10.1-3.7-11.1
		c-3.9-1.1-15.6,12.7-20.4,12.1C117.8,423.5,135.6,417,137.3,410.9z M18,458c-0.6,53.9,1.6,105.2,1,159.1
		c23.2,27.8,80,45.6,120.2,24.2c6.8-3.7,21-11.2,23.2-18.5c3.2-10.5,0-28.6,0-41.6c0-42.9,0-84.9,0-125.8c-47.8,0-95.7,0-143.4,0
		C17.9,455.5,17.9,456.7,18,458z M166.9,455.3c0,9.5,0,19.2,0,28.7c17.3,0,34.5,0,51.9,0c0-9.5,0-19.2,0-28.7
		C201.5,455.3,184.2,455.3,166.9,455.3z M222.5,484c12.3,0,24.6,0,37,0c0-9.5,0-19.2,0-28.7c-12.3,0-24.6,0-37,0
		C222.5,464.9,222.5,474.4,222.5,484z M263.1,484c28.9,5.1,27.3-33.3,0-28.7C263.1,464.9,263.1,474.4,263.1,484z M166.9,503.4
		c0,9.5,0,19.2,0,28.7c17.3,0,34.5,0,51.9,0c0-9.5,0-19.2,0-28.7C201.5,503.4,184.2,503.4,166.9,503.4z M222.5,532.1
		c12.3,0,24.6,0,37,0c0-9.5,0-19.2,0-28.7c-12.3,0-24.6,0-37,0C222.5,512.9,222.5,522.6,222.5,532.1z M263.1,532.1
		c28.8,5.1,27.5-33.3,0-28.7C263.1,512.9,263.1,522.6,263.1,532.1z M166.9,552.5c0,9.9,0,19.8,0,29.6c17.3,0,34.5,0,51.9,0
		c0-9.9,0-19.8,0-29.6C201.5,552.5,184.2,552.5,166.9,552.5z M222.5,582c12.3,0,24.6,0,37,0c0-9.9,0-19.8,0-29.6
		c-12.3,0-24.6,0-37,0C222.5,562.3,222.5,572.1,222.5,582z M264.1,582c26.6,3.8,27.5-33.8-1-28.7C263.7,562.7,262,574.3,264.1,582z
		 M166.9,599.6c0,9.9,0,19.8,0,29.6c17.3,0,34.5,0,51.9,0c0-9.9,0-19.8,0-29.6C201.5,599.6,184.2,599.6,166.9,599.6z M222.5,629.2
		c12.3,0,24.6,0,37,0c0-9.9,0-19.8,0-29.6c-12.3,0-24.6,0-37,0C222.5,609.4,222.5,619.3,222.5,629.2z M264.1,629.2
		c24.8,2.8,24.6-32.3,0-29.6C262.6,607.5,262.6,621.4,264.1,629.2z"/>
	<path fill="#FFFFFF" d="M612.9,438.6c-0.5,66.7,1.6,130.9,1,198c-16.5-2.9-21.2,8.4-31.5,14.8c-37.6,23.4-100,15.9-131.4-7.4
		c-32.7-4.4-79.3,5.9-111,0c-25.1-4.6-32.6-36.8-14.8-55.5c-11.8-9-14.2-38.7-1-48.1c-23.1-39.2-1.2-90.7,33.3-99.9
		c3.4-8.8,8.4-17.3,12.9-25.9c4-7.8,7.2-18.5,15.7-22.2c-3.1,15.3-14.8,29.6-20.4,45.4c28.1,2.2,60.2,0.4,89.8,1
		c-12.9-14.4-14.6-55,1-71.3c28.8,16,62.2,35.1,94.3,53.7c9.8,5.6,21.8,15.7,30.5,17.6C591.9,440.9,603.3,436.9,612.9,438.6z
		 M527.7,476.6c-3.5,47.1,20.1,74.8,68.4,73.1c2.2-29.3,0.4-62.6,1-93.5c-5.5,0-11.1,0-16.7,0c-18.4-10.9-36.2-20.4-55.5-31.5
		c-5-2.8-14.8-11.3-18.5-11.1c-1,0.1-4.1,4.4-4.6,4.6c-13.8,7.6-28.9-8.3-24-21.2c-3.4-1.2-5.7-3.5-9.3-4.6
		C463.9,441.1,500.8,456.3,527.7,476.6z M503.7,412.8c-7.7-5.4-15.7-10.2-24-14.8C476.1,414.7,495.8,423.9,503.7,412.8z
		 M400.1,456.2c0,9.5,0,19.2,0,28.7c16.3,0,32.7,0,49,0c0-9.5,0-19.2,0-28.7C432.8,456.2,416.5,456.2,400.1,456.2z M455.6,456.2
		c0.6,54.3-1.2,111,1,163.7c18.8-34,57-48.6,93.5-64.8c-26.4-10.6-39.7-34.3-40.8-70.3C489.1,479,483.3,452.5,455.6,456.2z
		 M346.4,457.2c-12,3.4-10.9,23.3-1,28.7c16.3,0,32.7,0,49,0c0-9.5,0-19.2,0-28.7C379.6,460,359.7,453.3,346.4,457.2z M332.5,511.7
		c-13.2,31.7,39,20.6,62,22.2c0-9.9,0-19.8,0-29.6C377.3,507.4,338.5,497.2,332.5,511.7z M400.1,504.3c0,9.5,0,19.2,0,28.7
		c16.3,0,32.7,0,49,0c0-9.5,0-19.2,0-28.7C432.8,504.3,416.5,504.3,400.1,504.3z M340.8,552.5c-11.7,2.9-13.2,24-1.8,28.7
		c13.3,5.4,37.1-4,55.5,0c0-9.5,0-19.2,0-28.7C378.8,555.8,358,548.1,340.8,552.5z M400.1,552.5c0,9.5,0,19.2,0,28.7
		c16.3,0,32.7,0,49,0c0-9.5,0-19.2,0-28.7C432.8,552.5,416.5,552.5,400.1,552.5z M487.1,610.7c-7.7,6.8-17.7,13.8-19.4,25
		c29.4,16.8,75.2,14.6,101.8-1c10.1-6,26.2-16,28.7-25.9c3.3-13.7-2.4-24.5,0-39.8C546.2,568.2,513.7,587,487.1,610.7z M333.5,608
		c-1.7,7.2,1.5,15.1,7.4,18.5c17.9,0,35.7,0,53.7,0c0-9.3,0-18.5,0-27.7C375.8,601.5,337.4,591.3,333.5,608z M400.1,598.7
		c0,9.3,0,18.5,0,27.7c16.3,0,32.7,0,49,0c0-9.3,0-18.5,0-27.7C432.8,598.7,416.5,598.7,400.1,598.7z"/>
</g>
</svg>
